<?xml version="1.0" encoding="UTF-8" standalone="no"?>
<svg
   xmlns:dc="http://purl.org/dc/elements/1.1/"
   xmlns:cc="http://creativecommons.org/ns#"
   xmlns:rdf="http://www.w3.org/1999/02/22-rdf-syntax-ns#"
   xmlns:svg="http://www.w3.org/2000/svg"
   xmlns="http://www.w3.org/2000/svg"
   xmlns:sodipodi="http://sodipodi.sourceforge.net/DTD/sodipodi-0.dtd"
   xmlns:inkscape="http://www.inkscape.org/namespaces/inkscape"
   inkscape:version="1.0 (4035a4f, 2020-05-01)"
   height="121.2"
   width="461.42722"
   sodipodi:docname="region_ile-de-france.svg"
   xml:space="preserve"
   viewBox="0 0 461.42724 121.2"
   y="0px"
   x="0px"
   id="Layer_1"
   version="1.1"><metadata
   id="metadata878"><rdf:RDF><cc:Work
       rdf:about=""><dc:format>image/svg+xml</dc:format><dc:type
         rdf:resource="http://purl.org/dc/dcmitype/StillImage" /><dc:title></dc:title></cc:Work></rdf:RDF></metadata><defs
   id="defs876" /><sodipodi:namedview
   inkscape:current-layer="Layer_1"
   inkscape:window-maximized="1"
   inkscape:window-y="23"
   inkscape:window-x="0"
   inkscape:cy="60.6"
   inkscape:cx="230.55"
   inkscape:zoom="1.6020269"
   lock-margins="true"
   fit-margin-bottom="10"
   fit-margin-right="10"
   fit-margin-left="10"
   fit-margin-top="10"
   showgrid="false"
   id="namedview874"
   inkscape:window-height="995"
   inkscape:window-width="1792"
   inkscape:pageshadow="2"
   inkscape:pageopacity="0"
   guidetolerance="10"
   gridtolerance="10"
   objecttolerance="10"
   borderopacity="1"
   bordercolor="#666666"
   pagecolor="#ffffff" />
<style
   id="style833"
   type="text/css">
	.st0{fill:#E42313;}
	.st1{fill:#2A327B;}
</style>
<g
   transform="translate(-26,-110.9)"
   id="g871">
	<path
   id="path835"
   d="m 135.7,181.7 h -8.8 l 7.7,-10.2 H 145 l 7.7,10.2 h -8.8 l -4.1,-5.5 -4.1,5.5 m -1.7,39.4 v -35.6 h 11.6 V 221 Z"
   class="st0" />
	<polygon
   id="polygon837"
   points="151.3,172.1 162.9,172.1 162.9,221 151.3,221 "
   class="st0" />
	<path
   id="path839"
   d="m 177.7,206.1 c 0.2,4.9 3,8 8,8 2.8,0.2 5.4,-1.4 6.6,-3.9 h 10.9 c -2.1,8.2 -9.7,11.8 -17.7,11.8 -11.6,0 -19.4,-7 -19.4,-18.9 0,-10.9 8.7,-18.7 19.2,-18.7 12.7,0 19.1,9.6 18.6,21.6 l -26.2,0.1 m 14.4,-6.6 c -0.2,-4 -3,-7.3 -6.9,-7.3 -4.1,0 -6.9,3 -7.5,7.3 z"
   class="st0" />
	<path
   id="path841"
   d="m 232.1,221 h -4.6 v -3.8 h -0.1 c -1.5,3.1 -5.1,4.4 -8.9,4.4 -8.6,0 -12.9,-6.8 -12.9,-14.8 0,-8 4.2,-14.5 12.7,-14.5 2.9,0 7,1.1 9,4.4 h 0.1 V 182.4 H 232 V 221 m -12.9,-3.4 c 6.2,0 8.5,-5.3 8.5,-10.5 0,-5.5 -2.5,-10.6 -8.8,-10.6 -6.3,0 -8.4,5.4 -8.4,10.7 0.1,5.2 2.8,10.3 8.7,10.4 z"
   class="st0" />
	<path
   id="path843"
   d="m 260.3,212.1 c -1.2,6.2 -5.7,9.5 -11.9,9.5 -8.9,0 -13.1,-6.2 -13.4,-14.8 0,-8.4 5.5,-14.5 13.1,-14.5 9.9,0 12.9,9.2 12.6,16 h -20.9 c -0.2,4.9 2.6,9.2 8.7,9.2 3.8,0 6.4,-1.8 7.2,-5.4 h 4.6 m -4.5,-7.8 c -0.1,-4.4 -3.7,-7.9 -8,-7.9 -4.8,0 -7.7,3.6 -8,7.9 z"
   class="st0" />
	<polygon
   id="polygon845"
   points="276.4,192.3 296.5,192.3 296.5,202.1 276.4,202.1 276.4,221 263.6,221 263.6,172.1 299.7,172.1 299.7,182.3 276.4,182.3 "
   class="st0" />
	<path
   id="path847"
   d="m 302,185.4 h 11.3 v 6.2 h 0.1 c 1.7,-4.5 5.7,-6.9 10.7,-6.9 0.9,0 1.8,0.1 2.7,0.3 v 10.6 c -1.4,-0.4 -2.9,-0.7 -4.5,-0.7 -5.8,0 -8.8,4 -8.8,8.4 V 221 H 302 Z"
   class="st0" />
	<path
   id="path849"
   d="m 326.9,196.4 c 0,-3.9 2.1,-7.6 5.5,-9.5 3.5,-1.7 7.4,-2.6 11.3,-2.5 8.4,0 16.6,1.9 16.6,11.9 v 15.5 c 0,3 0,6.3 1.3,9.1 h -11.7 c -0.4,-1.1 -0.6,-2.2 -0.7,-3.4 -3.2,3 -7.4,4.6 -11.7,4.4 -6.8,0 -12.1,-3.4 -12.1,-10.7 0,-11.6 12.6,-10.7 20.7,-12.3 2,-0.4 3.1,-1.1 3.1,-3.3 0,-2.7 -3.2,-3.7 -5.6,-3.7 -3.2,0 -5.3,1.4 -5.8,4.4 l -10.9,0.1 m 15,18.5 c 5.5,0 7.4,-3.1 7.1,-10.5 -1.6,1 -4.7,1.2 -7.2,1.9 -2.5,0.7 -4.8,1.7 -4.8,4.5 0.1,2.8 2.3,4 4.9,4.1 z"
   class="st0" />
	<path
   id="path851"
   d="m 364.5,185.4 h 11.3 v 4.9 h 0.1 c 2.1,-3.6 6.9,-5.9 11.2,-5.9 11.9,0 12.8,8.6 12.8,13.8 V 221 h -11.6 v -17.2 c 0,-4.9 0.5,-9.8 -5.8,-9.8 -4.4,0 -6.3,3.7 -6.3,7.6 V 221 h -11.6 v -35.6 z"
   class="st0" />
	<path
   id="path853"
   d="m 427.4,198.5 c -0.2,-3 -2.7,-5.2 -5.7,-5.1 -6.5,0 -7.6,5.6 -7.6,10.5 0,4.6 2,9.3 6.9,9.3 4,0 6.1,-2.3 6.6,-6.1 h 11.3 c -1,9.5 -8.5,15 -17.8,15 -10.7,0 -18.6,-7.3 -18.6,-18.2 0,-11.3 7.2,-19.4 18.6,-19.4 8.8,0 16.7,4.7 17.5,14 z"
   class="st0" />
	<path
   id="path855"
   d="m 451.4,206.1 c 0.2,4.9 3,8 7.9,8 2.8,0.2 5.4,-1.4 6.6,-3.9 h 10.9 c -2.1,8.2 -9.7,11.8 -17.7,11.8 -11.6,0 -19.5,-7 -19.5,-18.9 0,-10.9 8.7,-18.7 19.2,-18.7 12.7,0 19.1,9.6 18.6,21.6 l -26,0.1 m 14.5,-6.6 c -0.2,-4 -3,-7.3 -6.9,-7.3 -4.1,0 -6.8,3 -7.5,7.3 z"
   class="st0" />
	<path
   id="path857"
   d="m 134,121.9 h 19.7 c 7.8,0 12.7,4.3 12.7,10.9 0,5 -2.2,9.2 -7.3,10.6 v 0.1 c 4.9,0.9 5.8,4.5 6.3,8.6 0.4,4.1 0.1,8.7 2.5,11.5 h -6.2 c -1.6,-1.7 -0.7,-6.2 -1.5,-10.3 -0.6,-4.1 -1.6,-7.5 -7,-7.5 h -13.6 v 17.8 H 134 Z m 17.1,19.3 c 5.2,0 9.7,-1.3 9.7,-7.4 0,-4.1 -2.2,-7.1 -7.4,-7.1 h -13.8 v 14.6 h 11.5 z"
   class="st1" />
	<path
   id="path859"
   d="m 199,154.1 c -1.3,6.7 -6.1,10.3 -12.9,10.3 -9.6,0 -14.2,-6.7 -14.5,-15.9 0,-9.1 6,-15.7 14.2,-15.7 10.7,0 14,10 13.7,17.3 h -22.6 c -0.2,5.3 2.8,9.9 9.4,9.9 4,0 6.9,-2 7.8,-5.9 z m -4.8,-8.4 c -0.1,-4.7 -4,-8.6 -8.7,-8.5 -5.2,0 -8.3,3.9 -8.7,8.5 z m -7.5,-24.8 h 6.4 l -7.7,8.4 h -3.7 z"
   class="st1" />
	<path
   id="path861"
   d="m 230.8,161.1 c 0,9.8 -4.5,14.8 -14,14.8 -5.7,0 -12.2,-2.3 -12.5,-8.9 h 5 c 0.2,3.6 4.6,4.9 7.8,4.9 6.5,0 9.1,-4.7 9.1,-11.5 v -2 h -0.1 c -1.8,3.5 -5.5,5.7 -9.4,5.5 -9,0 -13.5,-7.1 -13.5,-15.3 0,-7.1 3.5,-16 14,-16 3.7,-0.1 7.2,1.8 9,5 v 0 -4.3 h 4.7 v 27.8 z m -5,-13.1 c 0,-5.4 -2.3,-10.8 -8.6,-10.8 -6.3,0 -8.9,5.2 -8.9,11 0,5.4 2,11.5 8.5,11.5 6.5,0 9,-6.1 9,-11.7 z"
   class="st1" />
	<path
   id="path863"
   d="m 243.5,128 h -5 v -6.1 h 5 z m -5,5.5 h 5 v 30.2 h -5 z"
   class="st1" />
	<path
   id="path865"
   d="m 264.3,132.7 c 9.6,0 14.7,7 14.7,15.9 0,8.9 -5.2,15.8 -14.7,15.8 -9.5,0 -14.8,-7 -14.8,-15.8 0,-8.8 5.1,-15.9 14.8,-15.9 z m 0,27.3 c 5.2,0 9.4,-4 9.4,-11.4 0,-7.4 -4.2,-11.5 -9.4,-11.5 -5.2,0 -9.4,4.1 -9.4,11.5 0,7.4 4.1,11.4 9.4,11.4 z"
   class="st1" />
	<path
   id="path867"
   d="m 284.8,133.5 h 4.7 v 4.8 h 0.1 c 1.9,-3.6 5.8,-5.7 9.8,-5.5 8,0 10.4,4.6 10.4,11.1 v 19.9 h -5 v -20.5 c 0.2,-3.1 -2.1,-5.9 -5.3,-6.1 -0.3,0 -0.6,0 -0.9,0 -6,0 -8.9,4 -8.9,9.5 v 17.1 h -5 v -30.3 z"
   class="st1" />
	<path
   id="path869"
   d="m 95.1,157.8 c -0.4,0.1 -0.8,0.3 -1.1,0.4 -0.1,0 -0.1,0 -0.1,-0.1 0.1,-0.4 -1.6,1.2 -1.6,0.6 0,-0.1 0.1,0 -0.1,0 0.6,0.1 -3.7,1.4 -3.7,1.3 -0.2,-0.4 -0.2,-1 0.1,-1.3 0.3,-0.9 -0.7,-2.1 -0.3,-1.7 -0.2,-0.2 -0.3,-0.5 -0.1,-0.8 0,0 0.1,-0.1 0.1,-0.1 0.2,0.1 0,0 0.1,-0.4 0.1,-0.1 -0.2,-0.5 0.1,-0.4 0.5,-0.8 0.7,-1.8 0.4,-2.7 -0.7,-1.7 -0.4,-13.6 0,-13.1 0.1,-0.8 -0.6,-1.4 -0.3,-2.1 0,-0.6 -0.6,-0.6 -0.5,-1.1 -0.3,-1.3 -2.1,-1.2 -1.9,-1.5 -0.9,0.2 -4.4,5.8 -4.4,5.9 0.2,-0.2 -2.3,3.6 -2.3,3.6 -0.3,0 -0.6,0.4 -0.7,1 0,0.1 -1.4,1.8 -1.3,1.5 -0.5,0.8 -1.1,1.6 -1.5,2.4 0.3,-0.2 -0.6,0.7 -0.5,0.7 0.1,0 -1.1,2.7 -1.1,2.5 0,-0.2 -1.3,1.3 -1.5,1.3 -0.3,1.3 -5,-1.9 -5.1,-3.3 0,0 -0.1,-1.3 -0.7,-1.5 L 64,146.1 c -1.9,-2.5 -3.4,-2.5 -6.2,-4.9 -0.3,-0.7 -0.7,-1.4 -1.1,-2.1 -1.1,0.3 -2.5,1.9 -2.2,2.3 -0.4,0.2 -0.5,-0.4 -0.7,-0.6 0,1.4 0.2,2.8 0.5,4.2 -0.1,0.5 0.2,3.2 0.4,2.8 l 0.2,0.2 c 0,0 -0.3,0.4 0,0.7 0.4,0.8 1.3,1.3 1,2.4 -0.4,0.2 0,1.6 0,1.1 -0.4,2.2 4.7,6.3 4,9.3 -0.3,0.3 1,1.8 0.7,1.7 -0.8,0.6 -1.7,1 -2.7,1.1 -0.3,0.2 -0.5,0 -0.8,0 -0.3,0 -2.7,-1 -3.3,-0.6 0,0 -1.9,-0.4 -2,-0.3 0.3,-0.4 -2.2,0.5 -1.8,-0.3 0.2,-0.6 -2.2,0.7 -1.6,0.3 0,0 -1,0.6 -1,0.4 0,-0.2 -0.9,0 -0.7,0 -0.2,0 -1.2,-0.3 -1,-0.2 -0.5,-0.4 -0.7,0.1 -1.3,-0.2 -0.3,0.1 -0.6,0.2 -0.9,0.1 H 42 c 0,0 -1.3,0.4 -1.3,0 0,0 -1.1,0.8 -1.4,0.3 0.1,-0.4 -1.3,0.4 -1.5,0.4 -0.2,0 -0.9,-0.3 -0.8,-0.1 -0.1,0 -1,1.2 -1,1.2 0,0 4.9,3.6 4.1,3 0.6,0.4 1.1,0.8 1.8,1.2 -0.2,0.5 1.8,0 1.5,1.2 1.9,-1.1 5.7,4 7.1,3.3 0.2,0 0.8,0.9 0.9,0.8 -0.3,-0.3 1,0.4 0.6,0.4 0.2,0.2 0.1,0.1 0.7,0.8 1.5,0 2.2,1.2 2.7,1.6 1.7,3.2 -5.4,6.4 -5.9,8 0,0.1 0,0.2 -0.1,0.1 -0.1,0 -1,0.5 -1.1,1 l -1.1,1.3 c -0.9,-0.3 -3.3,3.5 -4.3,4 l -2.3,1 c -0.2,0.2 -0.4,0.4 -0.5,0.6 -0.2,0.3 -0.4,0.6 -0.8,0.8 -0.6,0.5 -1.1,1 -1.6,1.5 l -0.4,0.7 0.6,0.3 c -0.2,0.2 -0.3,0.4 -0.4,0.6 -0.1,0.2 -0.3,0.6 0.2,0.7 0.4,0.1 0.7,0.1 0.8,0.3 0.1,0.2 1.9,0.4 2.1,0.3 l 1,-0.5 c 1.4,-0.3 2.8,-0.3 4.1,0 1.5,-0.3 2.9,-0.8 4.3,-1.3 0.1,0 2.7,-0.9 2.7,-0.9 0.7,-0.3 2.2,-0.6 2.7,-1.1 0.8,-0.4 1.8,-0.5 2.7,-0.4 0.2,0.1 6.2,-1.1 6.4,-1.9 0.3,0 0.5,0.2 0.6,0.5 0,1.1 0,2.3 -0.2,3.4 0,-0.3 -0.8,0.6 -0.5,1 0.6,0.2 0.6,0 0.9,0.8 -0.2,-0.4 0,1.8 0,2.6 0,0.4 0.7,1.8 -0.4,2.3 0,0 -0.6,1.3 -0.7,1.3 0.1,-0.6 0.1,0.3 0,0.1 0.6,-0.3 0.4,1.4 0.3,1.6 0.1,-0.3 -0.3,0.3 -0.3,0.1 -0.9,1.8 1,2 -0.1,2.2 0.5,0.1 0.7,2.5 0.7,2.2 0.1,0.8 0,1.6 -0.2,2.3 -0.2,-0.5 -0.4,0.9 -0.3,1.3 0.2,0.9 -0.3,2.6 0.6,3 -0.1,-0.3 0.6,0.8 0.6,0.8 2,0.8 2.5,-1.7 3.3,-2.2 0.3,0 0.6,-1.2 0.9,-1.2 0,-0.1 1.2,-5.8 2.1,-5.5 0.7,-1.1 1.3,-2.2 1.9,-3.3 0,0.1 -0.8,-0.8 0.8,-1.5 0.8,0.3 1.1,-1.8 1.3,-2.9 0,-0.7 0.5,-0.3 0.6,-1.1 0.7,-0.9 1.2,-1.9 1.6,-3 0.2,0 0.3,-1 0.4,-0.9 -0.4,-0.4 0.4,-0.8 0.3,-1.1 0.1,-0.6 0.1,-1.1 0.3,-1 0.2,-1.1 0.9,-0.6 1.1,-0.5 0.1,0.1 0.8,-0.1 0.8,0.7 -0.3,0.4 1,0.8 0.9,1 0,-0.2 6.4,7.4 8.2,8.8 0.1,0.1 5.1,5 4.8,4.9 0.5,0.3 1,1.3 1,1.2 -0.2,0.3 1,0.8 1.2,0.8 0.8,1.3 0.8,1 1.2,0.8 0.1,0.6 1.1,0.3 1.5,0.5 -0.1,-0.3 0.8,-0.5 0.6,-0.8 0.3,0.1 -0.2,-1.1 0,-0.9 -0.3,-0.6 -2.2,-3.1 -2.1,-3.5 0,-0.1 0.3,-0.1 0.4,0 0.1,0.1 -0.2,-0.3 -0.4,-0.4 0.3,0 0.4,-0.2 0.2,-0.5 -0.3,0.2 -0.8,-2 -0.5,-2.3 0.1,-0.5 -1.5,-7.2 -2.3,-7.9 0,-0.6 -0.2,-1.2 -0.3,-1.8 -1.3,-0.8 -0.2,-2.4 -1.1,-2.7 -0.2,0.4 -1.1,-1.1 -1.3,-2.4 -0.4,-0.8 0,-2.7 -0.3,-2.4 -0.3,-0.3 1.3,-1 1.7,-0.1 3.4,1.3 9.8,-0.8 12.2,1 0.5,-1 1.8,-0.2 1.1,-0.4 -0.1,0.1 0.1,0.2 0.3,0.2 0.9,-0.1 1.8,-0.1 2.7,0 -1,-0.2 1.5,-0.1 1.3,-0.1 1.6,-0.1 3.1,-0.6 4.5,-1.3 1,-0.3 0.8,-0.8 1.2,-1.8 -0.2,0.8 0.3,-0.8 -0.6,-1.3 -4.9,-1.2 -8.9,-4.9 -13.8,-6.2 -1.9,-0.4 -5,-5.1 -6.6,-4.8 3,-3.4 5.9,-6.8 8.9,-9.7 0.6,-0.6 6.7,-7.2 6.7,-7.1 0.2,-0.3 0.6,-1.4 0.5,-1 0,-0.2 -0.1,-0.4 -0.2,-0.6 0,0.1 -2.3,-1.7 -2.9,-0.6 0.8,0.5 -1.6,0.7 -2.2,0.8 -0.2,0.1 -0.3,0.1 -0.5,0 -0.6,-0.1 -1.4,0.5 -1.8,0.6 -0.9,-0.8 -3.2,0.7 -4.2,1 -0.4,0 -0.8,0 -1.2,-0.1 -0.3,0.6 -0.3,0.4 -0.3,0.3 -0.5,0.4 -1.1,0.6 -1.7,0.8 0.1,0 -0.8,0.4 -1.1,0.3 0,0.1 -0.1,0.6 -0.7,0.5 -0.5,-0.1 -0.3,-0.3 -0.5,-0.1"
   class="st0" />
</g>
</svg>
